<?xml version="1.0" standalone="no"?>
<!DOCTYPE svg PUBLIC "-//W3C//DTD SVG 20010904//EN"
 "http://www.w3.org/TR/2001/REC-SVG-20010904/DTD/svg10.dtd">
<svg version="1.0" xmlns="http://www.w3.org/2000/svg"
 width="512.000000pt" height="512.000000pt" viewBox="0 0 512.000000 512.000000"
 preserveAspectRatio="xMidYMid meet">

<g transform="translate(0.000000,512.000000) scale(0.100000,-0.100000)"
fill="#000000" stroke="none">
<path d="M2966 4021 c-54 -37 -64 -66 -96 -286 -16 -114 -30 -230 -30 -258 0
-60 27 -108 73 -130 32 -15 371 -99 454 -113 107 -17 190 70 169 178 -9 51
-45 87 -105 108 -62 21 -59 25 49 58 353 107 764 -2 1040 -278 361 -361 409
-910 118 -1344 -60 -89 -191 -215 -288 -278 -106 -69 -204 -112 -329 -145 -83
-22 -117 -26 -251 -26 -136 0 -168 4 -255 27 -188 49 -355 144 -491 280 -94
95 -149 172 -210 299 -65 136 -92 256 -103 461 -6 94 -17 207 -26 251 -113
551 -558 981 -1107 1070 -120 19 -331 19 -444 0 -566 -97 -1000 -528 -1110
-1100 -21 -110 -24 -345 -5 -460 110 -679 766 -1184 1459 -1124 164 14 269 43
459 125 8 4 10 -16 6 -74 -5 -70 -3 -85 16 -115 55 -89 194 -88 249 3 13 20
29 100 50 252 18 123 32 237 32 253 0 37 -30 88 -66 111 -38 25 -471 127 -513
120 -101 -16 -155 -135 -101 -224 20 -32 86 -71 123 -72 72 -1 -100 -61 -233
-81 -106 -16 -274 -6 -393 25 -286 73 -524 254 -676 514 -136 233 -169 556
-84 827 51 161 127 288 251 417 141 146 305 243 500 295 85 23 117 26 257 26
141 0 172 -3 260 -26 356 -95 642 -363 748 -702 35 -113 45 -176 56 -360 5
-88 17 -196 26 -240 53 -257 180 -492 369 -681 315 -314 741 -449 1181 -374
510 87 891 408 1050 883 51 153 69 267 69 447 0 181 -18 294 -70 450 -158 473
-540 793 -1049 880 -258 44 -509 17 -744 -80 l-72 -29 7 73 c7 80 -3 111 -50
155 -36 34 -128 41 -170 12z"/>
</g>
</svg>
